    <svg width="600" height="400" xmlns="http://www.w3.org/2000/svg">

        <ellipse rx="50" ry="15" cx="160" cy="200" fill="grey" ></ellipse>
        <ellipse rx="50" ry="15" cx="340" cy="200" fill="grey" ></ellipse>
        <circle r="75" cx="150" cy="120" fill="orange"></circle>
        <circle r="75" cx="350" cy="120" fill="yellow"></circle>
        <circle r="30" cx="145" cy="100" fill="white"></circle>
        <circle r="30" cx="175" cy="100" fill="white"></circle>
        <circle r="30" cx="325" cy="100" fill="white"></circle>
        <circle r="30" cx="355" cy="100" fill="white"></circle>
        <circle r="7" cx="150" cy="100" fill="black"></circle>
        <circle r="7" cx="180" cy="100" fill="black"></circle>
        <circle r="7" cx="320" cy="100" fill="black"></circle>
        <circle r="7" cx="350" cy="100" fill="black"></circle>
        <circle r="10" cx="165" cy="130" fill="black"></circle>
        <polygon points="110,60 70,60 80,100"  fill="orange"></polygon>
        <polygon points="100,70 78,68 85,90"  fill="black"></polygon>
        <polygon points="200,35 175,50 205,70"  fill="orange"></polygon>
        <polygon points="195,45 180,55 195,60"  fill="black"></polygon> 
        <ellipse rx="12" ry="7" cx="160" cy="160" fill="grey" ></ellipse>
        <ellipse rx="7" ry="12" cx="340" cy="160" fill="grey" ></ellipse>
        <ellipse rx="55" ry="20" cx="100" cy="130" fill="orange" transform="rotate(15)"></ellipse>
        <polygon points="40,135 18,138 25,150"  fill="white"></polygon>
        
        
        
        
    </svg>